<?xml version="1.0" encoding="utf-8"?>
<!DOCTYPE svg PUBLIC "-//W3C//DTD SVG 1.1//EN" "http://www.w3.org/Graphics/SVG/1.1/DTD/svg11.dtd">
<svg version="1.1" id="图形" xmlns="http://www.w3.org/2000/svg" xmlns:xlink="http://www.w3.org/1999/xlink" x="0px" y="0px" width="1118px" height="1024px" viewBox="0 0 1118 1024" enable-background="new 0 0 1118 1024" xml:space="preserve">
  <path fill="#fff" d="M789.584239 811.813858C742.117944 811.813858 693.876056 800.738389 648.085042 776.850123 615.944466 760.035265 587.123428 736.302118 555.013875 714.585512 555.013875 714.585512 555.013875 714.585512 555.013875 714.585512 555.013875 714.585512 552.935286 716.260793 551.011815 718.122216 487.816493 779.8284 407.620171 811.658739 326.493137 811.658739 270.619413 811.658739 214.311358 796.550186 162.811979 765.712606 44.487502 694.823401-18.45963 555.12358 4.777138 415.702972 18.117338 335.568698 55.780137 269.364074 110.195746 212.528615 213.008361 105.21756 390.805313-79.963038 488.747204-181.844942 508.074983-201.979338 533.328293-212 558.612627-212 583.865937-212 609.119247-201.979338 628.416002-181.969037 728.963886-77.667283 913.927318 114.927985 1020.617899 228.971188 1095.912472 309.384676 1128.704547 408.753658 1113.533947 521.586936 1090.328202 694.171903 944.299542 811.813858 789.584239 811.813858 789.584239 811.813858 789.584239 811.813858 789.584239 811.813858Z" transform="translate(0, 812) scale(1, -1)"/>
</svg>
