<?xml version="1.0" encoding="utf-8"?>
<!DOCTYPE svg PUBLIC "-//W3C//DTD SVG 1.1//EN" "http://www.w3.org/Graphics/SVG/1.1/DTD/svg11.dtd">
<svg version="1.1" id="图形" xmlns="http://www.w3.org/2000/svg" xmlns:xlink="http://www.w3.org/1999/xlink" x="0px" y="0px" width="1024px" height="1024px" viewBox="0 0 1024 1024" enable-background="new 0 0 1024 1024" xml:space="preserve">
  <path fill="#272636" d="M400 812l-320 0C35.904 812 0 776.096 0 732l0-320C0 367.904 35.904 332 80 332l320 0c44.096 0 80 35.904 80 80l0 320C480 776.096 444.096 812 400 812zM448 412c0-26.464-21.536-48-48-48l-320 0C53.536 364 32 385.536 32 412l0 320C32 758.464 53.536 780 80 780l320 0C426.464 780 448 758.464 448 732L448 412zM944 812l-320 0C579.872 812 544 776.096 544 732l0-320c0-44.096 35.872-80 80-80l320 0c44.128 0 80 35.904 80 80l0 320C1024 776.096 988.128 812 944 812zM992 412c0-26.464-21.536-48-48-48l-320 0c-26.464 0-48 21.536-48 48l0 320C576 758.464 597.536 780 624 780l320 0C970.464 780 992 758.464 992 732L992 412zM944 268l-320 0c-44.128 0-80-35.872-80-80l0-320c0-44.128 35.872-80 80-80l320 0c44.128 0 80 35.872 80 80l0 320C1024 232.128 988.128 268 944 268zM992-132c0-26.464-21.536-48-48-48l-320 0c-26.464 0-48 21.536-48 48l0 320c0 26.464 21.536 48 48 48l320 0c26.464 0 48-21.536 48-48L992-132zM400 268l-320 0C35.904 268 0 232.128 0 188l0-320C0-176.128 35.904-212 80-212l320 0c44.096 0 80 35.872 80 80l0 320C480 232.128 444.096 268 400 268zM448-132c0-26.464-21.536-48-48-48l-320 0C53.536-180 32-158.464 32-132l0 320C32 214.464 53.536 236 80 236l320 0c26.464 0 48-21.536 48-48L448-132z" transform="translate(0, 812) scale(1, -1)"/>
</svg>
