<?xml version="1.0" encoding="utf-8"?>
<!DOCTYPE svg PUBLIC "-//W3C//DTD SVG 1.1//EN" "http://www.w3.org/Graphics/SVG/1.1/DTD/svg11.dtd">
<svg version="1.1" id="图形" xmlns="http://www.w3.org/2000/svg" xmlns:xlink="http://www.w3.org/1999/xlink" x="0px" y="0px" width="1024px" height="1024px" viewBox="0 0 1024 1024" enable-background="new 0 0 1024 1024" xml:space="preserve">
  <path fill="#272636" d="M1024 546.08l-325.824-230.208L698.176 453.984c-446.528 0-503.616-315.072-510.912-395.648 12.032 532.736 510.912 533.76 510.912 533.76L698.176 776.288 1024 546.08zM187.264 58.336c-0.128-6.528-1.088-12.096-1.088-18.752C186.176 39.648 186.24 46.56 187.264 58.336zM93.12 592.096l0-676.288 744.704 0L837.824 276.384l93.12 65.792 0-426.368c0-50.816-41.664-92.096-93.12-92.096L93.12-176.288C41.664-176.288 0-135.072 0-84.192L0 592.096c0 50.88 41.664 92.096 93.12 92.096l605.056 0c-0.064 0-182.4-0.64-346.944-92.096L93.12 592.096z" transform="translate(0, 812) scale(1, -1)"/>
</svg>
