<?xml version="1.0" encoding="utf-8"?>
<!DOCTYPE svg PUBLIC "-//W3C//DTD SVG 1.1//EN" "http://www.w3.org/Graphics/SVG/1.1/DTD/svg11.dtd">
<svg version="1.1" id="图形" xmlns="http://www.w3.org/2000/svg" xmlns:xlink="http://www.w3.org/1999/xlink" x="0px" y="0px" width="1024px" height="1024px" viewBox="0 0 1024 1024" enable-background="new 0 0 1024 1024" xml:space="preserve">
  <path fill="#272636" d="M949.47278-164.546341l1.798244 0c-6.593561 195.908683-141.312 359.224195-323.084488 408.925659 102.150244 44.806244 173.505561 146.731707 173.505561 265.415805C801.717073 669.813854 671.993756 799.512195 512 799.512195 351.981268 799.512195 222.282927 669.813854 222.282927 509.795122c0-118.684098 71.380293-220.609561 173.505561-265.415805C214.065951 194.677854 79.322537 31.362341 72.753951-164.546341l1.798244 0C73.203512-167.618341 72.429268-170.965073 72.429268-174.536585c0-13.786537 11.189073-24.97561 24.97561-24.97561s24.97561 11.189073 24.97561 24.97561c0 3.571512-0.774244 6.918244-2.097951 9.990244l2.497561 0c7.892293 208.221659 179.075122 374.634146 389.244878 374.634146 210.14478 0 381.377561-166.412488 389.244878-374.634146l2.497561 0C902.393756-167.618341 901.619512-170.965073 901.619512-174.536585c0-13.786537 11.189073-24.97561 24.97561-24.97561 13.811512 0 24.97561 11.189073 24.97561 24.97561C951.570732-170.965073 950.796488-167.618341 949.47278-164.546341zM262.243902 509.795122c0 137.915317 111.815805 249.756098 249.756098 249.756098 137.940293 0 249.756098-111.84078 249.756098-249.756098 0-137.940293-111.815805-249.756098-249.756098-249.756098C374.059707 260.039024 262.243902 371.854829 262.243902 509.795122zM949.47278-164.546341l1.798244 0c-6.593561 195.908683-141.312 359.224195-323.084488 408.925659 102.150244 44.806244 173.505561 146.731707 173.505561 265.415805C801.717073 669.813854 671.993756 799.512195 512 799.512195 351.981268 799.512195 222.282927 669.813854 222.282927 509.795122c0-118.684098 71.380293-220.609561 173.505561-265.415805C214.065951 194.677854 79.322537 31.362341 72.753951-164.546341l1.798244 0C73.203512-167.618341 72.429268-170.965073 72.429268-174.536585c0-13.786537 11.189073-24.97561 24.97561-24.97561s24.97561 11.189073 24.97561 24.97561c0 3.571512-0.774244 6.918244-2.097951 9.990244l2.497561 0c7.892293 208.221659 179.075122 374.634146 389.244878 374.634146 210.14478 0 381.377561-166.412488 389.244878-374.634146l2.497561 0C902.393756-167.618341 901.619512-170.965073 901.619512-174.536585c0-13.786537 11.189073-24.97561 24.97561-24.97561 13.811512 0 24.97561 11.189073 24.97561 24.97561C951.570732-170.965073 950.796488-167.618341 949.47278-164.546341zM262.243902 509.795122c0 137.915317 111.815805 249.756098 249.756098 249.756098 137.940293 0 249.756098-111.84078 249.756098-249.756098 0-137.940293-111.815805-249.756098-249.756098-249.756098C374.059707 260.039024 262.243902 371.854829 262.243902 509.795122z" transform="translate(0, 812) scale(1, -1)"/>
</svg>
